<?xml version="1.0" standalone="no"?>
<!DOCTYPE svg PUBLIC "-//W3C//DTD SVG 20010904//EN"
 "http://www.w3.org/TR/2001/REC-SVG-20010904/DTD/svg10.dtd">
<svg version="1.0" xmlns="http://www.w3.org/2000/svg"
 width="700.000000pt" height="700.000000pt" viewBox="0 0 700.000000 700.000000"
 preserveAspectRatio="xMidYMid meet">
<metadata>
Created by potrace 1.14, written by Peter Selinger 2001-2017
</metadata>
<g transform="translate(0.000000,700.000000) scale(0.100000,-0.100000)"
fill="#000000" stroke="none">
<path d="M3340 6994 c-14 -2 -59 -9 -100 -15 -284 -40 -592 -175 -825 -362
-61 -49 -226 -215 -276 -277 l-36 -45 -69 45 c-346 228 -764 284 -1144 154
-403 -138 -715 -463 -835 -869 -15 -49 -29 -106 -32 -125 -3 -19 -9 -55 -13
-80 -12 -66 -4 -293 14 -382 50 -249 148 -575 311 -1033 161 -454 520 -1360
545 -1375 7 -4 785 -5 813 -1 5 0 6 9 3 19 -3 9 -8 60 -11 112 -4 52 -8 111
-10 130 -1 19 -6 76 -9 125 -4 50 -9 108 -11 130 -5 40 -14 158 -20 250 -4 60
-14 183 -20 245 -3 25 -7 81 -10 125 -4 44 -8 98 -10 120 -1 22 -6 83 -10 135
-3 52 -8 106 -10 120 -2 14 -6 72 -10 130 -3 58 -8 112 -10 120 -5 21 -19 224
-19 292 -1 51 2 61 29 87 33 32 49 35 222 47 94 6 104 5 132 -15 16 -12 34
-36 40 -54 9 -30 13 -62 26 -237 3 -36 7 -87 9 -115 3 -27 8 -90 12 -140 3
-49 8 -106 9 -125 2 -19 6 -75 10 -125 3 -49 8 -106 10 -125 2 -19 7 -75 10
-125 4 -49 8 -106 10 -125 2 -19 7 -78 10 -130 3 -52 8 -111 10 -130 4 -34 12
-128 20 -235 2 -27 6 -84 9 -125 13 -152 15 -177 21 -262 4 -48 8 -96 9 -105
3 -17 37 -18 569 -18 l567 0 0 55 c1 30 1 503 1 1051 0 968 1 996 20 1028 10
17 31 36 47 42 15 6 88 10 162 10 146 -1 170 -8 197 -62 10 -19 13 -261 13
-1074 l0 -1050 578 0 c569 0 577 0 578 20 1 11 5 56 8 100 4 44 9 109 12 145
2 36 7 88 9 115 2 28 7 86 10 130 3 44 8 100 10 125 7 70 15 169 20 245 5 72
13 162 20 250 2 28 7 86 10 130 3 44 8 98 10 120 2 22 7 78 10 125 5 87 12
170 20 250 3 25 7 81 10 125 15 235 22 264 66 296 28 19 38 20 142 14 160 -9
178 -13 212 -46 34 -33 37 -62 21 -239 -5 -52 -10 -113 -11 -135 -6 -90 -32
-418 -40 -500 -2 -22 -6 -78 -10 -125 -3 -47 -8 -105 -10 -130 -5 -42 -9 -101
-20 -247 -8 -106 -15 -197 -20 -248 -2 -27 -7 -84 -10 -125 -3 -41 -8 -97 -10
-125 -2 -27 -7 -91 -11 -141 -3 -51 -7 -100 -7 -110 -2 -18 16 -19 407 -19
353 0 410 2 416 15 4 8 12 26 18 40 6 14 20 45 30 70 104 241 385 968 499
1290 112 316 242 732 259 824 3 16 7 32 9 36 2 4 11 40 19 81 8 41 18 88 21
104 11 49 14 276 5 330 -16 99 -21 121 -40 192 -98 361 -396 705 -730 842 -30
12 -64 26 -75 31 -18 8 -92 33 -105 35 -3 1 -18 4 -35 8 -253 60 -479 51 -720
-28 -125 -41 -253 -104 -336 -167 -20 -16 -41 -28 -46 -28 -5 0 -22 17 -38 38
-55 70 -250 259 -325 314 -238 174 -464 271 -755 325 -73 13 -386 25 -445 17z"/>
<path d="M876 1287 c0 -496 4 -918 8 -937 25 -119 113 -238 216 -294 110 -60
-44 -56 2425 -54 l2260 3 57 23 c58 24 137 78 175 122 26 30 82 131 90 162 2
13 8 41 12 63 3 22 6 438 6 925 l0 885 -2625 2 -2625 2 1 -902z"/>
</g>
</svg>
